<svg version="1.1" xmlns="http://www.w3.org/2000/svg" xmlns:xlink="http://www.w3.org/1999/xlink" width="623" height="504" viewBox="0,0,623,504"><g transform="translate(58,72.62343)"><g stroke-miterlimit="10"><g><path d="M476.31362,301.34367c0,30.86174 -20.06659,55.88495 -44.80358,55.88495h-384.21217c-24.7422,0 -44.79837,-25.0297 -44.79837,-55.88495v-243.30245c0,-30.86173 20.05617,-55.87845 44.79837,-55.87845h384.20697c24.75261,0 44.80358,25.01672 44.80358,55.87846v243.30245z" fill="none" stroke="#ff0000" stroke-width="5"/><path d="M8.78569,25.03085c-0.19584,1.2944 -0.44313,2.57881 -0.78419,3.84056c-0.41789,1.54598 -1.45895,2.91901 -1.66291,4.50744c-0.42279,3.29271 -0.44686,8.89036 -1.7901,11.78126c-1.07749,2.31897 -3.13977,4.03686 -4.70966,6.05529c0,0 -8.83883,8.83883 -17.67767,0c-6.36455,-6.36456 -3.56329,-12.72911 -1.49622,-15.79366c-0.00333,-0.01537 -0.0046,-0.03121 -0.00354,-0.04745c0.06859,-1.05186 0.82671,-1.96025 1,-3c0.1644,-0.9864 -0.18302,-2.01689 0,-3c0.58594,-3.14758 2.54723,-6.32627 2.93225,-9.52501c0.35571,-2.95518 0.64487,-5.97741 1.66903,-8.77218c0.38945,-1.06277 1.10394,-1.99091 1.46286,-3.06437c1.36772,-4.09054 0.38576,-9.42514 3.43562,-12.47499c2.92083,-2.92082 7.83081,-2.66206 11.83884,-3.66117c0.95215,-0.23735 2.04235,0.45796 2.94308,0.06857c1.44804,-0.62599 2.14077,-2.37649 3.48528,-3.20171c0.72505,-0.44502 1.52844,-0.7326 2.34171,-1.00033c1.49541,-1.54753 3.06052,-3.02676 4.6583,-3.99967c0.26197,-0.15952 9.63785,-3.95695 10.56936,-3.70546c0.61775,0.16679 1.22948,0.35089 1.83607,0.54971c0.05523,-0.01952 0.11063,-0.03866 0.16621,-0.05742v-0.65369h4c6.90356,0 12.5,5.59644 12.5,12.5c0,3.45178 -1.39911,6.57678 -3.66116,8.83884l-2,2l-0.22803,-0.22803c-0.49774,0.31076 -1.01892,0.58747 -1.56029,0.82688l-0.47888,1.19545c-1.87293,0.7418 -3.71776,1.55893 -5.6188,2.2254c-1.67893,0.58861 -3.6397,0.65304 -5.24994,1.11623c-0.95469,0.95469 -1.90938,1.90938 -2.86407,2.86407c-2.66666,2.66667 -5.33334,5.33334 -8,8c-0.66666,0.66666 -1.32423,1.34256 -2,2c-0.08496,0.08265 -0.16455,0.18864 -0.24264,0.30207c-0.01267,0.61754 -0.09619,1.24297 -0.09619,1.85909z" fill="#ff0000" stroke="none" stroke-width="0.5"/><path d="M465.23279,21.37657c0,-0.61613 -0.08353,-1.24156 -0.09619,-1.85909c-0.07809,-0.11343 -0.15768,-0.21942 -0.24264,-0.30207c-0.67577,-0.65744 -1.33334,-1.33334 -2,-2c-2.66666,-2.66666 -5.33334,-5.33334 -8,-8c-0.95469,-0.95469 -1.90938,-1.90938 -2.86407,-2.86407c-1.61023,-0.46319 -3.57101,-0.52762 -5.24994,-1.11623c-1.90104,-0.66647 -3.74586,-1.4836 -5.61879,-2.2254l-0.47888,-1.19545c-0.54137,-0.2394 -1.06255,-0.51611 -1.56029,-0.82687l-0.22803,0.22803l-2,-2c-2.26205,-2.26206 -3.66116,-5.38705 -3.66116,-8.83883c0,-6.90356 5.59644,-12.5 12.5,-12.5h4v0.65369c0.05558,0.01876 0.11099,0.0379 0.16621,0.05742c0.6066,-0.19882 1.21832,-0.38293 1.83607,-0.54971c0.93151,-0.25149 10.30739,3.54594 10.56936,3.70546c1.59778,0.97291 3.16288,2.45214 4.6583,3.99967c0.81327,0.26773 1.61665,0.55531 2.3417,1.00033c1.34451,0.82522 2.03724,2.57572 3.48528,3.20171c0.90073,0.38939 1.99093,-0.30592 2.94308,-0.06857c4.00802,0.9991 8.91801,0.74034 11.83884,3.66117c3.04985,3.04986 2.0679,8.38445 3.43562,12.47499c0.35892,1.07347 1.0734,2.00161 1.46286,3.06438c1.02416,2.79477 1.31332,5.81699 1.66903,8.77218c0.38502,3.19874 2.34631,6.37742 2.93225,9.52501c0.18302,0.98311 -0.1644,2.0136 0,3c0.17329,1.03975 0.93141,1.94814 1,3c0.00106,0.01624 -0.0002,0.03208 -0.00353,0.04745c2.06707,3.06455 4.86833,9.42911 -1.49622,15.79366c-8.83884,8.83883 -17.67767,0 -17.67767,0c-1.56988,-2.01843 -3.63217,-3.73632 -4.70966,-6.05529c-1.34324,-2.8909 -1.36731,-8.48855 -1.7901,-11.78126c-0.20396,-1.58843 -1.24502,-2.96146 -1.66291,-4.50744c-0.34106,-1.26176 -0.58835,-2.54616 -0.78419,-3.84056z" fill="#ff0000" stroke="none" stroke-width="0.5"/><path d="M467.94711,337.9895c0.19583,-1.2944 0.44313,-2.57881 0.78419,-3.84057c0.41789,-1.54598 1.45895,-2.91901 1.66291,-4.50743c0.42278,-3.29271 0.44687,-8.89036 1.7901,-11.78126c1.07749,-2.31897 3.13977,-4.03686 4.70966,-6.05529c0,0 8.83884,-8.83884 17.67767,0c6.36455,6.36455 3.5633,12.72911 1.49622,15.79367c0.00333,0.01537 0.00459,0.03121 0.00354,0.04745c-0.0686,1.05186 -0.82671,1.96025 -1,3c-0.1644,0.98639 0.18301,2.01689 0,3c-0.58595,3.14758 -2.54723,6.32627 -2.93225,9.52501c-0.3557,2.95519 -0.64487,5.97741 -1.66903,8.77218c-0.38945,1.06276 -1.10393,1.99091 -1.46286,3.06437c-1.36772,4.09055 -0.38576,9.42514 -3.43562,12.47499c-2.92082,2.92082 -7.83081,2.66206 -11.83884,3.66116c-0.95216,0.23735 -2.04235,-0.45796 -2.94308,-0.06857c-1.44804,0.62599 -2.14077,2.37649 -3.48528,3.2017c-0.72505,0.44502 -1.52844,0.7326 -2.3417,1.00033c-1.49541,1.54753 -3.06052,3.02676 -4.6583,3.99967c-0.26198,0.15952 -9.63786,3.95695 -10.56936,3.70546c-0.61775,-0.16679 -1.22947,-0.35089 -1.83607,-0.54971c-0.05523,0.01952 -0.11063,0.03866 -0.16621,0.05742v0.65369h-4c-6.90356,0 -12.5,-5.59644 -12.5,-12.5c0,-3.45178 1.39911,-6.57678 3.66116,-8.83884l2,-2l0.22803,0.22803c0.49774,-0.31076 1.01892,-0.58747 1.56029,-0.82687l0.47888,-1.19545c1.87293,-0.7418 3.71775,-1.55893 5.61879,-2.22541c1.67894,-0.58861 3.63971,-0.65304 5.24994,-1.11622c0.95469,-0.95469 1.90938,-1.90938 2.86407,-2.86407c2.66667,-2.66666 5.33333,-5.33334 8,-8c0.66667,-0.66666 1.32423,-1.34256 2,-2c0.08496,-0.08266 0.16454,-0.18864 0.24264,-0.30208c0.01267,-0.61754 0.0962,-1.24296 0.0962,-1.85909z" fill="#ff0000" stroke="none" stroke-width="0.5"/><path d="M15.5,338.64378c0,0.61613 0.08353,1.24156 0.0962,1.85909c0.0781,0.11343 0.15768,0.21942 0.24264,0.30208c0.67577,0.65744 1.33333,1.33333 2,2c2.66667,2.66667 5.33333,5.33333 8,8c0.95469,0.95469 1.90938,1.90938 2.86407,2.86407c1.61023,0.46319 3.57101,0.52761 5.24994,1.11622c1.90104,0.66647 3.74586,1.48361 5.61879,2.22541l0.47888,1.19545c0.54137,0.2394 1.06255,0.51611 1.56029,0.82687l0.22803,-0.22803l2,2c2.26205,2.26205 3.66116,5.38706 3.66116,8.83884c0,6.90356 -5.59644,12.5 -12.5,12.5h-4v-0.6537c-0.05558,-0.01876 -0.11098,-0.0379 -0.16621,-0.05742c-0.6066,0.19882 -1.21832,0.38293 -1.83607,0.54971c-0.93151,0.25149 -10.30739,-3.54594 -10.56936,-3.70546c-1.59778,-0.97291 -3.16288,-2.45214 -4.6583,-3.99967c-0.81327,-0.26773 -1.61665,-0.55531 -2.3417,-1.00033c-1.34451,-0.82522 -2.03724,-2.57572 -3.48528,-3.20171c-0.90073,-0.38939 -1.99093,0.30592 -2.94308,0.06857c-4.00802,-0.9991 -8.91801,-0.74034 -11.83884,-3.66116c-3.04985,-3.04985 -2.0679,-8.38445 -3.43562,-12.47499c-0.35892,-1.07346 -1.0734,-2.00161 -1.46286,-3.06437c-1.02416,-2.79477 -1.31333,-5.81699 -1.66903,-8.77218c-0.38502,-3.19874 -2.34631,-6.37743 -2.93225,-9.52501c-0.18302,-0.98311 0.1644,-2.0136 0,-3c-0.17329,-1.03975 -0.9314,-1.94814 -1,-3c-0.00106,-0.01624 0.0002,-0.03208 0.00353,-0.04745c-2.06707,-3.06455 -4.86833,-9.42911 1.49622,-15.79367c8.83884,-8.83884 17.67767,0 17.67767,0c1.56988,2.01843 3.63217,3.73632 4.70966,6.05529c1.34323,2.8909 1.36732,8.48856 1.7901,11.78127c0.20396,1.58842 1.24502,2.96146 1.66291,4.50743c0.34106,1.26175 0.58835,2.54616 0.78419,3.84056z" fill="#ff0000" stroke="none" stroke-width="0.5"/><path d="M476,424.37657v-382h86v382z" fill="#ff0000" stroke="none" stroke-width="0"/><path d="M-12,4.37657v-62h522v62z" fill="#ff0000" stroke="none" stroke-width="0"/><path d="M-46,414.37657v-451h51v451z" fill="#ff0000" stroke="none" stroke-width="0"/><path d="M14,424.37657v-65h485v65z" fill="#ff0000" stroke="none" stroke-width="0"/><path d="M-58,-5.62343v-67h601v67z" fill="#ff0000" stroke="none" stroke-width="0"/><path d="M489,336.37657v-366h76v366z" fill="#ff0000" stroke="none" stroke-width="0"/><path d="M-57,431.37657v-73h112v73z" fill="#ff0000" stroke="none" stroke-width="0"/><path d="M-55,391.37657v-429h25v429z" fill="#ff0000" stroke="none" stroke-width="0"/></g></g></g></svg>